# xmcd
#
# Track frame offsets:
#	150
#	14125
#	28357
#	40732
#	57807
#	77112
#	91980
#	106487
#	118179
#	133232
#	150830
#	166572
#	179209
#	191007
#	206217
#	220582
#	233760
#	247585
#	261612
#	278575
#
# Disc length: 3959 seconds
#
# Revision: 0
# Processed by: cddbd v1.4PL0 Copyright (c) Steve Scherf et al.
# Submitted via: dBpowerAMP V4.0
#
DISCID=1b0f7514
DTITLE=Various Artist - NonStop Country Hits
DYEAR=1900
DGENRE=Country
TTITLE0=Let Your Love Flow
TTITLE1=You're Still the One
TTITLE2=Killing Time
TTITLE3=Island in the Streams
TTITLE4=Coward of the County
TTITLE5=Who's Lonely Now
TTITLE6=Green Green Grass of Home
TTITLE7=Arms of Mary
TTITLE8=Rhinestone Cowboy
TTITLE9=Help Me Hold On
TTITLE10=Blanket on the Ground
TTITLE11=All I have to do is Dream
TTITLE12=Take me Home Country Roads
TTITLE13=Five Minutes
TTITLE14=If I said You had a Beautiful Body
TTITLE15=Rose Garden
TTITLE16=Southern Star
TTITLE17=End of the World
TTITLE18=Lyin' Eyes
TTITLE19=How do I Live
EXTD=
EXTT0=
EXTT1=
EXTT2=
EXTT3=
EXTT4=
EXTT5=
EXTT6=
EXTT7=
EXTT8=
EXTT9=
EXTT10=
EXTT11=
EXTT12=
EXTT13=
EXTT14=
EXTT15=
EXTT16=
EXTT17=
EXTT18=
EXTT19=
PLAYORDER=
